<svg width="27" height="21" viewBox="0 0 27 21" fill="none" xmlns="http://www.w3.org/2000/svg">
<path fill-rule="evenodd" clip-rule="evenodd" d="M22.3063 2.55594H4.46128C3.23443 2.55594 2.23065 3.32272 2.23065 4.2599V16.1876C2.23065 17.1248 3.23443 17.8916 4.46128 17.8916H22.3063C23.5331 17.8916 24.5369 17.1248 24.5369 16.1876V4.2599C24.5369 3.32272 23.5331 2.55594 22.3063 2.55594ZM10.0378 14.4837H6.6919C6.07848 14.4837 5.57659 14.1003 5.57659 13.6317C5.57659 13.1631 6.07848 12.7797 6.6919 12.7797H10.0378C10.6513 12.7797 11.1531 13.1631 11.1531 13.6317C11.1531 14.1003 10.6513 14.4837 10.0378 14.4837ZM10.0378 11.0757H6.6919C6.07848 11.0757 5.57659 10.6923 5.57659 10.2238C5.57659 9.75517 6.07848 9.37178 6.6919 9.37178H10.0378C10.6513 9.37178 11.1531 9.75517 11.1531 10.2238C11.1531 10.6923 10.6513 11.0757 10.0378 11.0757ZM10.0378 7.66782H6.6919C6.07848 7.66782 5.57659 7.28443 5.57659 6.81584C5.57659 6.34725 6.07848 5.96386 6.6919 5.96386H10.0378C10.6513 5.96386 11.1531 6.34725 11.1531 6.81584C11.1531 7.28443 10.6513 7.66782 10.0378 7.66782ZM20.8564 9.47401L17.3208 12.1748C16.8859 12.5071 16.1721 12.5071 15.7371 12.1748L14.1645 10.965C13.7295 10.6327 13.7295 10.096 14.1645 9.76369C14.5995 9.43141 15.3021 9.43141 15.7371 9.76369L16.529 10.3686L19.2838 8.2642C19.7187 7.93193 20.4214 7.93193 20.8564 8.2642L20.8675 8.27272C21.2913 8.60499 21.2913 9.15026 20.8564 9.47401Z" fill="black" fill-opacity="0.7"/>
</svg>
